<svg xmlns="http://www.w3.org/2000/svg" width="1001" height="739" viewBox="0 0 1001 739">
  <defs>
    <linearGradient id="hero-a" x1="50%" x2="50%" y1="100%" y2="0%">
      <stop offset="0%" stop-color="gray" stop-opacity=".25"/>
      <stop offset="54%" stop-color="gray" stop-opacity=".12"/>
      <stop offset="100%" stop-color="gray" stop-opacity=".1"/>
    </linearGradient>
    <linearGradient id="hero-b" x1="49.998%" x2="49.998%" y1="99.965%" y2=".005%">
      <stop offset="0%" stop-color="gray" stop-opacity=".25"/>
      <stop offset="54%" stop-color="gray" stop-opacity=".12"/>
      <stop offset="100%" stop-color="gray" stop-opacity=".1"/>
    </linearGradient>
    <linearGradient id="hero-c" x1="49.998%" x2="49.998%" y1="100%" y2="0%">
      <stop offset="0%" stop-color="gray" stop-opacity=".25"/>
      <stop offset="54%" stop-color="gray" stop-opacity=".12"/>
      <stop offset="100%" stop-color="gray" stop-opacity=".1"/>
    </linearGradient>
    <linearGradient id="hero-d" x1="49.993%" x2="49.993%" y1="100.001%" y2="-.007%">
      <stop offset="0%" stop-color="gray" stop-opacity=".25"/>
      <stop offset="54%" stop-color="gray" stop-opacity=".12"/>
      <stop offset="100%" stop-color="gray" stop-opacity=".1"/>
    </linearGradient>
  </defs>
  <g fill="none" fill-rule="evenodd">
    <path fill="#604CB0" fill-rule="nonzero" d="M27.66,463.89 C15.66,465.84 0.61,471.42 0.75,484.39 C0.82,490.97 5.19,496.58 9.44,501.39 C27.5042135,521.973641 48.1128806,540.176339 70.77,555.56 C81.59,562.89 93.22,569.9 100.41,581.23 C107.6,592.56 109.41,606.98 109.98,620.7 C111.382093,653.183716 107.55325,685.681619 98.64,716.95 C133.87,723.66 173.16,729.54 202.52,708.35 C220.1,695.66 231.99,674.4 251.58,665.6 C264.66,659.72 279.47,660.24 293.73,660.99 C361.23,664.543333 428.563333,671.21 495.73,680.99 C523.86,685.09 552.53,689.73 580.36,684.43 C608.19,679.13 635.57,661.84 645.83,633.81 C647.41,629.49 648.83,624.67 652.37,622.07 C655.57,619.75 659.76,619.8 663.65,619.94 L898.73,628.02 C911.61,628.46 924.94,628.82 936.73,623.52 C948.16,618.39 956.95,608.52 965.41,598.85 C984.76,576.79 1005.57,549.65 999.88,519.71 C995.33,495.71 974.99,478.94 954.82,467.2 C934.65,455.46 912.4,445.85 897.58,427.08 C875.03,398.51 875.92,357.62 874.52,320.55 C873.244159,286.983129 869.11257,253.585838 862.17,220.72 C856.06,191.83 847.55,162.9 831.64,138.5 C815.73,114.1 791.4,94.56 763.88,90.98 C727.94,86.3 691.81,108.72 656.65,99.2 C626.95,91.2 606.51,62.77 581.9,43.07 C538.19,8.07 480.83,0.74 426.6,0.07 C369.1,-0.66 310.08,5.16 258.83,32.16 C247.09,38.34 235.61,45.82 227.48,56.74 C215.02,73.49 212,95.99 203.85,115.57 C171,194.41 64.16,211.41 29.48,289.41 C17.17,317.08 17.29,349.35 26.26,378.41 C35.91,409.68 63.07,426.95 73.84,454.21 C62.25,461.67 41.71,461.6 27.66,463.89 Z" opacity=".1"/>
    <g opacity=".2" transform="translate(862 148)">
      <path stroke="#535461" stroke-width="2" d="M23.55,222.92 C23.55,222.92 28.35,159.15 64.39,124.5 C79.5994521,110.064381 89.715742,91.0844944 93.22,70.41 C94.7929664,60.5818477 95.4624296,50.6302778 95.22,40.68"/>
      <path fill="#604CB0" fill-rule="nonzero" d="M117.84 18.71C115.18 25.71 94.74 41.32 94.74 41.32 94.74 41.32 89.74 16.11 92.38 9.08 95.0392511 2.04665371 102.896654-1.49925107 109.93 1.16 116.963346 3.81925107 120.509251 11.6766537 117.85 18.71L117.84 18.71zM124.16 65.62C118.11 70.08 92.48 72.04 92.48 72.04 92.48 72.04 101.97 48.15 108.02 43.69 111.935631 40.8068665 117.091956 40.2317056 121.546639 42.1811747 126.001321 44.1306438 129.077588 48.3085723 129.616639 53.1411749 130.15569 57.9737774 128.075631 62.7268667 124.16 65.61L124.16 65.62zM98.07 131.84C90.59 132.63 67.48 121.39 67.48 121.39 67.48 121.39 87.73 105.56 95.2 104.76 102.677936 103.967471 109.382471 109.387064 110.175 116.865 110.967529 124.342936 105.547936 131.047471 98.07 131.84zM67.05 177.5C59.81 179.5 35.13 172.37 35.13 172.37 35.13 172.37 52.41 153.37 59.65 151.3 64.3301793 149.978117 69.3600594 151.253493 72.8449331 154.645706 76.3298069 158.037919 77.7402389 163.03161 76.5449332 167.745706 75.3496275 172.459802 71.7301794 176.178117 67.05 177.5zM65.23 63.3C68.42 70.11 90 84.07 90 84.07 90 84.07 93.07 58.55 89.88 51.74 87.8150049 47.3367016 83.557739 44.3695479 78.7118732 43.9562369 73.8660073 43.5429259 69.1677439 45.7462495 66.3868732 49.7362369 63.6060024 53.7262243 63.1650049 58.8967016 65.23 63.3zM29.62 117.16C34.7 122.7 59.47 129.57 59.47 129.57 59.47 129.57 54.76 104.3 49.68 98.76 44.5989803 93.2178225 35.9871775 92.8439803 30.445 97.925 24.9028225 103.00602 24.5289803 111.617823 29.61 117.16L29.62 117.16zM2.2 174.25C6.27 180.57 29.53 191.52 29.53 191.52 29.53 191.52 29.16 165.82 25.09 159.52 21.0168998 153.199101 12.5908991 151.376901 6.27000038 155.450001-.0508983504 159.5231-1.87309956 167.949101 2.2 174.27L2.2 174.25z"/>
    </g>
    <polygon fill="url(#hero-a)" fill-rule="nonzero" points="164.14 87.83 164.14 123.8 164.14 548.83 904.94 548.83 904.94 123.8 904.94 87.83"/>
    <rect width="725.15" height="35.21" x="171.97" y="92.7" fill="#F6F7F9" fill-rule="nonzero"/>
    <rect width="725.15" height="35.21" x=".97" y=".7" fill="#604CB0" fill-rule="nonzero" opacity=".2" transform="translate(171 92)"/>
    <rect width="725.15" height="416.05" x="171.97" y="127.91" fill="#F6F7F9" fill-rule="nonzero"/>
    <circle cx="189.36" cy="110.09" r="7.83" fill="#F6F7F9" fill-rule="nonzero"/>
    <circle cx="210.22" cy="110.09" r="7.83" fill="#F6F7F9" fill-rule="nonzero"/>
    <circle cx="231.09" cy="110.09" r="7.83" fill="#F6F7F9" fill-rule="nonzero"/>
    <g fill="#604CB0" fill-rule="nonzero" opacity=".2" transform="translate(269 310)">
      <rect width="26.08" height="86.08" x=".78" y="124.41"/>
      <rect width="26.08" height="147.81" x="51.21" y="62.67"/>
      <rect width="26.08" height="209.54" x="101.64" y=".94"/>
      <rect width="26.08" height="189.55" x="152.07" y="20.94"/>
      <rect width="26.08" height="130.42" x="202.5" y="80.06"/>
    </g>
    <rect width="195.63" height="240.41" x=".4" y=".73" fill="#604CB0" fill-rule="nonzero" opacity=".2" transform="translate(665 265)"/>
    <path fill="url(#hero-b)" fill-rule="nonzero" d="M997.85,436.8 C996.6,430.44 994.2,424.22 994.14,417.74 C994.05,407.22 999.65,395 992.29,387.23 C990.61,385.46 988.36,384.14 987.11,382.07 C986.166112,380.280385 985.717315,378.271152 985.81,376.25 C985.69,363.98 992.45,351.52 988.4,339.89 C987.609303,337.280582 985.977962,335.005846 983.76,333.42 C981.42,331.9 978.76,331.61 975.89,331.66 C973.3,331.66 970.57,331.95 967.89,332 C966.373939,332.001035 964.864327,331.802667 963.4,331.41 C960.3,330.53 957.67,328.5 954.6,327.5 C952.987049,326.977011 951.294312,326.743413 949.6,326.81 C942.88,326.59 936.74,331.06 931.96,335.39 C929.576357,337.396278 927.053354,339.230885 924.41,340.88 C924.81,340.6 915.08,347.28 918.74,347.35 C921.354819,347.426772 923.882621,348.306615 925.98,349.87 C921.443225,356.869849 921.844758,365.976607 926.98,372.55 C925.39,370.99 923.63,369.28 921.83,367.55 C916.47,362.28 908.98,355.21 905.46,353.28 C899.67,350.17 891.4,343.41 891.4,343.41 C891.4,343.41 880.65,349.41 883.96,357.74 C885.539282,358.228589 887.080171,358.83358 888.57,359.55 C888.570874,360.65711 888.784762,361.75371 889.2,362.78 C892.599707,363.853026 895.818954,365.430626 898.75,367.46 C899.081367,367.920315 899.388453,368.397633 899.67,368.89 C901.1,371.39 905.55,375.94 910.99,381 C914.81,384.83 919.84,389.41 924.85,393.82 C923.34,396.82 921.75,399.82 921.47,402.82 C921.083901,402.667944 920.706641,402.494338 920.34,402.3 C912.9,398.3 895.54,398.72 895.54,398.72 C895.54,398.72 881.07,391.16 878.18,374.05 C878.18,374.05 875.29,363.7 876.11,360.92 L876.06,360.92 L876.43,360.84 L879.9,354.55 C880.343727,353.715754 880.333321,352.713236 879.872372,351.88838 C879.411424,351.063524 878.563052,350.529282 877.62,350.47 C860.7,348.95 859.9,364.47 859.9,364.47 L860.05,364.47 L860,364.6 C862.07,374.55 863.72,373.75 863.31,381.71 L869.92,399.22 C869.92,399.22 870.33,405.22 882.32,413.15 C894.31,421.08 907.95,433.45 907.95,433.45 C907.95,433.45 900.72,437.23 903.4,454.54 C906.68,475.7 901.75,505.88 901.75,505.88 L901.75,525.38 L902.67,525.13 C902.55,525.78 902.44,526.47 902.32,527.22 C900.793685,537.018968 900.601942,546.979549 901.75,556.83 C904.23,577.53 914.15,605.83 914.15,605.83 C914.15,605.83 917.87,615.78 918.7,623.74 C918.831172,625.316191 919.188153,626.865356 919.76,628.34 C921.623962,632.708295 922.609379,637.400917 922.66,642.15 C922.624064,654.078881 924.783346,665.91256 929.03,677.06 C933.22,687.7 934.78,693.94 935.24,697.58 C932.24,701.46 928.38,705.69 925.31,706.11 C919.52,706.91 908.36,707.7 915.8,717.25 C916.058071,717.579136 916.345958,717.88376 916.66,718.16 C911.01,719.06 904.8,721.04 910.84,728.79 C918.28,738.34 962.09,733.96 962.09,733.96 C962.09,733.96 962.37,728.65 962.09,722.82 C965.16,722.61 967.09,722.42 967.09,722.42 C967.09,722.42 968.33,699.34 962.96,696.55 C961.967233,696.657539 960.992508,696.892818 960.06,697.25 C959.48,694.06 959.06,690.09 958.76,687.16 L960.89,687 L960.89,686.84 L961.02,686.84 L961.02,652.06 C961.02,652.06 958.54,630.57 949.45,621.06 C948.28096,619.862241 947.272517,618.517651 946.45,617.06 L946.33,616.81 C946.39,614.09 946.39,610.42 946.33,606.21 L946.46,605.98 C946.62,605.72 946.78,605.49 946.93,605.28 C947.140373,604.999902 947.367452,604.73275 947.61,604.48 L947.74,604.31 C947.74,604.31 952.74,598.31 969.65,560.53 C979.98,537.47 977.25,524.53 973.55,517.86 C972.77,514.86 971.14,508.14 969.1,496.63 C968.263801,491.74526 967.865552,486.795596 967.91,481.84 C970.472658,482.480194 973.109183,482.77613 975.75,482.72 C979.894774,482.812752 984.003922,481.936134 987.75,480.16 C985.05,476.22 982.23,471.6 983.59,467.07 C985.13,461.91 991.23,459.54 994.75,455.38 C998.99,450.35 999.1,443.17 997.85,436.8 Z"/>
    <path fill="#797C9C" fill-rule="nonzero" d="M893.11,347.66 C893.11,347.66 882.85,353.58 886.01,361.87 C886.01,361.87 896.67,365.03 901.01,372.92 C905.35,380.81 938.9,409.23 938.9,409.23 L963.4,397 C963.4,397 954.89,385.64 927.97,377.7 C927.97,377.7 912.1,360.7 906.57,357.53 C901.04,354.36 893.11,347.66 893.11,347.66 Z"/>
    <path fill="#000" fill-rule="nonzero" d="M898.11,352.66 C898.11,352.66 887.85,358.58 891.01,366.87 C891.01,366.87 901.67,370.03 906.01,377.92 C910.35,385.81 943.9,414.23 943.9,414.23 L968.4,402 C968.4,402 959.89,390.64 932.97,382.7 C932.97,382.7 917.1,365.7 911.57,362.53 C906.04,359.36 898.11,352.66 898.11,352.66 Z" opacity=".05"/>
    <path fill="#604CB0" fill-rule="nonzero" d="M15.62,643.82 C15.62,643.82 -42.04,678.61 64.25,732.17 C64.25,732.17 87.67,688.69 61.78,653.24 C51.3755603,638.938571 31.9199892,634.677161 16.49,643.32 L15.62,643.82 Z"/>
    <path stroke="#535461" d="M16.28,643.08 C16.28,643.08 65.63,680.83 64.28,732.16"/>
    <path stroke="#535461" stroke-width="2" d="M67.04,732.8 C67.04,732.8 48.97,671.41 70.4,626.3 C79.5220311,607.418734 82.2730441,586.087857 78.24,565.51 C76.2471897,555.757043 73.3651478,546.207141 69.63,536.98"/>
    <path fill="#604CB0" fill-rule="nonzero" d="M83.01 508.41C83.01 515.93 69.4 537.73 69.4 537.73 69.4 537.73 55.79 515.93 55.79 508.41 55.79 500.890643 61.8856431 494.795 69.405 494.795 76.9243569 494.795 83.02 500.890643 83.02 508.41L83.01 508.41zM105.51 550.09C101.42 556.4 78.15 567.3 78.15 567.3 78.15 567.3 78.57 541.6 82.66 535.3 85.3037653 531.218241 89.924298 528.856971 94.781088 529.10566 99.6378781 529.354348 103.993064 532.175212 106.206088 536.50566 108.419113 540.836107 108.153765 546.018241 105.51 550.1L105.51 550.09zM104.53 621.25C97.82 624.64 72.22 622.25 72.22 622.25 72.22 622.25 85.56 600.25 92.27 596.89 98.9830211 593.504495 107.169494 596.201979 110.554999 602.915 113.940505 609.628021 111.243021 617.814494 104.53 621.2L104.53 621.25zM91.66 674.93C85.66 679.4 59.99 681.42 59.99 681.42 59.99 681.42 69.42 657.51 75.47 653.04 79.3802719 650.147935 84.5364104 649.561662 88.996148 651.502024 93.4558857 653.442387 96.5416823 657.614597 97.091148 662.447024 97.6406138 667.279452 95.5702719 672.037935 91.66 674.93zM49.57 568.76C54.96 574 80.09 579.43 80.09 579.43 80.09 579.43 73.94 554.43 68.54 549.23 65.0513015 545.835977 60.0169214 544.560968 55.3332618 545.885258 50.6496023 547.209548 47.0282227 550.931945 45.8332617 555.650259 44.6383007 560.368572 46.0513014 565.365977 49.54 568.76L49.57 568.76zM35.31 631.73C42.02 635.12 67.62 632.73 67.62 632.73 67.62 632.73 54.28 610.73 47.57 607.37 40.8569789 603.984494 32.6705055 606.681979 29.285 613.395 25.8994945 620.108021 28.5969789 628.294494 35.31 631.68L35.31 631.73zM29.86 694.83C35.86 699.3 61.53 701.32 61.53 701.32 61.53 701.32 52.1 677.41 46.05 672.94 40.0052434 668.469255 31.480745 669.745243 27.01 675.79 22.539255 681.834757 23.8152434 690.359255 29.86 694.83z"/>
    <path fill="#000" fill-rule="nonzero" d="M83.01 508.41C83.01 515.93 69.4 537.73 69.4 537.73 69.4 537.73 55.79 515.93 55.79 508.41 55.79 500.890643 61.8856431 494.795 69.405 494.795 76.9243569 494.795 83.02 500.890643 83.02 508.41L83.01 508.41zM105.51 550.09C101.42 556.4 78.15 567.3 78.15 567.3 78.15 567.3 78.57 541.6 82.66 535.3 85.3037653 531.218241 89.924298 528.856971 94.781088 529.10566 99.6378781 529.354348 103.993064 532.175212 106.206088 536.50566 108.419113 540.836107 108.153765 546.018241 105.51 550.1L105.51 550.09zM104.53 621.25C97.82 624.64 72.22 622.25 72.22 622.25 72.22 622.25 85.56 600.25 92.27 596.89 98.9830211 593.504495 107.169494 596.201979 110.554999 602.915 113.940505 609.628021 111.243021 617.814494 104.53 621.2L104.53 621.25zM91.66 674.93C85.66 679.4 59.99 681.42 59.99 681.42 59.99 681.42 69.42 657.51 75.47 653.04 79.3802719 650.147935 84.5364104 649.561662 88.996148 651.502024 93.4558857 653.442387 96.5416823 657.614597 97.091148 662.447024 97.6406138 667.279452 95.5702719 672.037935 91.66 674.93zM49.57 568.76C54.96 574 80.09 579.43 80.09 579.43 80.09 579.43 73.94 554.43 68.54 549.23 65.0513015 545.835977 60.0169214 544.560968 55.3332618 545.885258 50.6496023 547.209548 47.0282227 550.931945 45.8332617 555.650259 44.6383007 560.368572 46.0513014 565.365977 49.54 568.76L49.57 568.76zM35.31 631.73C42.02 635.12 67.62 632.73 67.62 632.73 67.62 632.73 54.28 610.73 47.57 607.37 40.8569789 603.984494 32.6705055 606.681979 29.285 613.395 25.8994945 620.108021 28.5969789 628.294494 35.31 631.68L35.31 631.73zM29.86 694.83C35.86 699.3 61.53 701.32 61.53 701.32 61.53 701.32 52.1 677.41 46.05 672.94 40.0052434 668.469255 31.480745 669.745243 27.01 675.79 22.539255 681.834757 23.8152434 690.359255 29.86 694.83z" opacity=".25"/>
    <path stroke="#535461" stroke-width="2" d="M108.85,733.97 C108.85,733.97 90.78,672.62 112.24,627.47 C121.362031,608.588734 124.113044,587.257857 120.08,566.68 C118.08719,556.927043 115.205148,547.377141 111.47,538.15"/>
    <path fill="#604CB0" fill-rule="nonzero" d="M124.82 509.61C124.82 517.13 111.21 538.93 111.21 538.93 111.21 538.93 97.6 517.13 97.6 509.61 97.6 502.090643 103.695643 495.995 111.215 495.995 118.734357 495.995 124.83 502.090643 124.83 509.61L124.82 509.61zM147.33 551.25C143.24 557.56 119.97 568.46 119.97 568.46 119.97 568.46 120.39 542.76 124.48 536.46 128.566907 530.150147 136.995147 528.348093 143.305 532.435 149.614853 536.521907 151.416907 544.950147 147.33 551.26L147.33 551.25zM146.34 622.41C139.63 625.8 114.03 623.41 114.03 623.41 114.03 623.41 127.37 601.41 134.08 598.05 138.431495 595.859962 143.620814 596.157778 147.69319 598.831264 151.765566 601.50475 154.102309 606.14774 153.82319 611.011264 153.544071 615.874788 150.691495 620.219962 146.34 622.41zM133.47 676.1C127.47 680.57 101.8 682.59 101.8 682.59 101.8 682.59 111.23 658.68 117.28 654.21 121.190272 651.317935 126.34641 650.731662 130.806148 652.672024 135.265886 654.612386 138.351683 658.784597 138.901148 663.617024 139.450614 668.449452 137.380272 673.207935 133.47 676.1zM91.4 569.92C96.79 575.16 121.92 580.59 121.92 580.59 121.92 580.59 115.77 555.59 110.37 550.39 106.881302 546.995977 101.846921 545.720969 97.1632619 547.045259 92.4796025 548.369549 88.8582229 552.091946 87.6632619 556.810259 86.4683009 561.528572 87.8813015 566.525977 91.37 569.92L91.4 569.92zM77.12 632.89C83.83 636.28 109.43 633.89 109.43 633.89 109.43 633.89 96.09 611.89 89.38 608.53 82.6669789 605.144494 74.4805055 607.841979 71.095 614.555 67.7094945 621.268021 70.4069789 629.454494 77.12 632.84L77.12 632.89zM71.67 696C77.67 700.47 103.34 702.49 103.34 702.49 103.34 702.49 93.91 678.58 87.86 674.11 81.8152434 669.639255 73.290745 670.915243 68.82 676.96 64.349255 683.004757 65.6252434 691.529255 71.67 696z"/>
    <rect width="953" height="7" x="24.54" y="731.83" fill="#604CB0" fill-rule="nonzero"/>
    <rect width="201.97" height="248.2" x="698.23" y="340.83" fill="url(#hero-c)" fill-rule="nonzero"/>
    <rect width="195.63" height="240.41" x="701.4" y="344.73" fill="#604CB0" fill-rule="nonzero"/>
    <rect width="40" height="40" x="714.54" y="365.83" fill="#E8EAF1" fill-rule="nonzero"/>
    <rect width="142" height="8" x="734.54" y="429.83" fill="#E8EAF1" fill-rule="nonzero"/>
    <rect width="142" height="8" x="734.54" y="446.83" fill="#E8EAF1" fill-rule="nonzero"/>
    <rect width="142" height="8" x="734.54" y="463.83" fill="#E8EAF1" fill-rule="nonzero"/>
    <rect width="142" height="8" x="734.54" y="480.83" fill="#E8EAF1" fill-rule="nonzero"/>
    <rect width="142" height="8" x="734.54" y="497.83" fill="#E8EAF1" fill-rule="nonzero"/>
    <rect width="142" height="8" x="734.54" y="514.83" fill="#E8EAF1" fill-rule="nonzero"/>
    <rect width="142" height="8" x="734.54" y="531.83" fill="#E8EAF1" fill-rule="nonzero"/>
    <path fill="#FFB9B9" fill-rule="nonzero" d="M957.05,684.3 C957.05,684.3 958.23,701.66 960.21,703.64 C962.19,705.62 942.45,706.8 942.45,706.8 L945.21,684.3 L957.05,684.3 Z"/>
    <path fill="#000" fill-rule="nonzero" d="M957.05,684.3 C957.05,684.3 958.23,701.66 960.21,703.64 C962.19,705.62 942.45,706.8 942.45,706.8 L945.21,684.3 L957.05,684.3 Z" opacity=".05"/>
    <path fill="#E4E2F3" fill-rule="nonzero" d="M961.4,697.72 C961.4,697.72 958.64,697.72 948.77,702.85 C948.77,702.85 942.06,701.67 939.3,692.19 C939.3,692.19 931.01,706.4 925.49,707.19 C919.97,707.98 909.31,708.77 916.41,718.24 C923.51,727.71 965.35,723.37 965.35,723.37 C965.35,723.37 966.52,700.48 961.4,697.72 Z"/>
    <path fill="#000" fill-rule="nonzero" d="M961.4,697.72 C961.4,697.72 958.64,697.72 948.77,702.85 C948.77,702.85 942.06,701.67 939.3,692.19 C939.3,692.19 931.01,706.4 925.49,707.19 C919.97,707.98 909.31,708.77 916.41,718.24 C923.51,727.71 965.35,723.37 965.35,723.37 C965.35,723.37 966.52,700.48 961.4,697.72 Z" opacity=".05"/>
    <path fill="#FFB9B9" fill-rule="nonzero" d="M955.47,711.14 L952.71,718.64 L934.56,713.51 L935.56,706.07 L935.81,704.27 L936.5,699.27 C936.5,699.27 951.89,695.32 951.89,697.27 C952.093964,698.897529 952.428373,700.506039 952.89,702.08 C953.52,704.51 954.31,707.27 954.89,709.08 C955.23,710.35 955.47,711.14 955.47,711.14 Z"/>
    <path fill="#4C4C78" fill-rule="nonzero" d="M945.56,608.21 C943.550667,611.601388 943.550667,615.818612 945.56,619.21 C946.336052,620.635214 947.290391,621.95583 948.4,623.14 C957.08,632.61 959.45,653.92 959.45,653.92 L959.45,688.25 L953.53,688.7 L944.06,689.43 L929.85,631.02 C929.85,631.02 921.56,588.4 925.51,580.9 C929.46,573.4 933.01,526.44 933.01,526.44 L936.29,523.05 L944.06,515 L966.56,515 C968.360289,516.289797 969.85548,517.959086 970.94,519.89 C974.72,526.14 978.11,539.14 967.75,563.14 C951.57,600.63 946.83,606.55 946.83,606.55 C946.344248,607.052662 945.918099,607.609676 945.56,608.21 Z"/>
    <path fill="#000" fill-rule="nonzero" d="M945.69,608.04 C943.680667,611.431388 943.680667,615.648612 945.69,619.04 C946.466052,620.465214 947.420391,621.78583 948.53,622.97 C957.21,632.44 959.58,653.75 959.58,653.75 L959.58,688.08 L953.66,688.53 L944.19,689.26 L929.98,630.85 C929.98,630.85 921.69,588.23 925.64,580.73 C929.59,573.23 933.14,526.27 933.14,526.27 L936.42,522.88 L944.19,514.83 L966.69,514.83 C968.490289,516.119797 969.98548,517.789086 971.07,519.72 C974.85,525.97 978.24,538.97 967.88,562.97 C951.7,600.46 946.96,606.38 946.96,606.38 C946.474248,606.882662 946.048099,607.439676 945.69,608.04 Z" opacity=".05"/>
    <path fill="#000" fill-rule="nonzero" d="M952.93,702.13 L935.84,704.27 L936.53,699.27 C936.53,699.27 951.92,695.32 951.92,697.27 C952.124586,698.914664 952.462362,700.540003 952.93,702.13 Z" opacity=".1"/>
    <path fill="#4C4C78" fill-rule="nonzero" d="M944.4,557.62 C944.4,557.62 945.4,588.69 945.54,608.21 C945.54,612.63 945.54,616.45 945.54,619.21 C945.562589,620.659986 945.455496,622.109088 945.22,623.54 C944.04,627.09 946.4,634.98 946.4,634.98 C952.321933,650.576579 954.74571,667.283571 953.5,683.92 L953.5,701.28 L934.56,703.65 C934.56,703.65 937.72,701.28 929.03,678.39 C924.966851,667.301433 922.904847,655.579499 922.94,643.77 C922.894225,639.06895 921.954167,634.419564 920.17,630.07 C919.627323,628.60358 919.290779,627.068942 919.17,625.51 C918.38,617.62 914.83,607.75 914.83,607.75 C914.83,607.75 905.36,579.75 902.99,559.21 C901.895516,549.44107 902.08041,539.571085 903.54,529.85 C903.888121,527.380763 904.362071,524.930909 904.96,522.51 C904.96,522.51 943.54,498.23 958.11,515.01 C959.513099,516.652874 960.625718,518.52302 961.4,520.54 C962.199724,522.531287 962.822139,524.589272 963.26,526.69 C967.79,548.94 944.4,557.62 944.4,557.62 Z"/>
    <circle cx="943.23" cy="364.64" r="20.13" fill="#FFB9B9" fill-rule="nonzero"/>
    <path fill="#FFB9B9" fill-rule="nonzero" d="M932.18,377.26 C932.18,377.26 940.47,400.54 932.18,412.78 C923.89,425.02 958.62,421.07 958.62,421.07 L972.04,404.89 C972.04,404.89 956.25,404.89 955.46,377.26 C954.67,349.63 932.18,377.26 932.18,377.26 Z"/>
    <path fill="#000" fill-rule="nonzero" d="M972.04 524.47C969.179902 525.458732 966.238648 526.194882 963.25 526.67 958.34 527.43 952.54 527.46 949.15 524.47 947.15 522.7 942.15 522.47 936.24 523.05 923.71 524.25 906.76 528.92 903.52 529.84 903.868121 527.370763 904.342071 524.920909 904.94 522.5 904.94 522.5 943.52 498.22 958.09 515L966.51 515C968.310289 516.289797 969.80548 517.959086 970.89 519.89 971.62 523.03 972.04 524.47 972.04 524.47zM955.47 711.14L952.71 718.64 934.56 713.51 935.56 706.07C938.68 712.97 944 713.91 944 713.91 947.465842 711.992589 951.101261 710.399164 954.86 709.15 955.23 710.35 955.47 711.14 955.47 711.14z" opacity=".1"/>
    <path fill="#E4E2F3" fill-rule="nonzero" d="M956.65,709.17 C956.65,709.17 953.89,709.17 944.02,714.3 C944.02,714.3 937.31,713.12 934.55,703.64 C934.55,703.64 926.26,717.85 920.74,718.64 C915.22,719.43 904.56,720.22 911.66,729.69 C918.76,739.16 960.6,734.82 960.6,734.82 C960.6,734.82 961.78,711.93 956.65,709.17 Z"/>
    <path fill="#FFB9B9" fill-rule="nonzero" d="M863.02,368.49 C863.02,368.49 863.79,353.12 879.94,354.62 C880.846321,354.711964 881.648888,355.245224 882.08483,356.045117 C882.520773,356.845011 882.533933,357.808498 882.12,358.62 L878.81,364.85 L863.02,368.49 Z"/>
    <path fill="#797C9C" fill-rule="nonzero" d="M956.26,409.62 C956.26,409.62 936.92,406.46 931.79,402.52 C931.79,402.52 927.84,410.02 920.74,406.07 C913.64,402.12 897.06,402.52 897.06,402.52 C888.265953,397.133036 882.22305,388.214468 880.48,378.05 C880.48,378.05 877.72,367.79 878.48,365.05 C878.48,365.05 868.22,354.39 863.09,368.6 C865.09,378.47 866.64,377.68 866.25,385.6 L872.56,402.96 C872.56,402.96 872.95,408.88 884.4,416.77 C895.85,424.66 908.87,436.9 908.87,436.9 C908.87,436.9 901.96,440.65 904.53,457.82 C907.67,478.82 902.95,508.73 902.95,508.73 L902.95,528.07 C902.95,528.07 942.42,516.63 949.12,522.54 C955.82,528.45 972.01,522.54 972.01,522.54 C972.01,522.54 970.01,515.83 967.27,499.65 C964.53,483.47 967.66,467.65 967.66,467.65 C967.66,467.65 977.92,440.42 982.66,429.37 C987.4,418.32 979.11,403.37 970.82,397.8 C962.53,392.23 959.45,395.59 959.45,395.59 C959.45,395.59 974.02,406.07 956.26,409.62 Z"/>
    <path fill="#000" fill-rule="nonzero" d="M905.55,466.63 C905.55,466.63 908.7,465.87 924.48,463.5 C940.26,461.13 967.89,466.66 967.89,466.66" opacity=".05"/>
    <path fill="#000" fill-rule="nonzero" d="M919.19,351.6 C928.19,351.79 934.85,362.89 930.86,370.9 C929.11,374.42 925.72,377.52 926.07,381.43 C926.23,383.21 927.18,384.82 927.59,386.56 C929.48,394.56 919.91,402.05 922.1,409.95 C922.847593,412.068434 924.010281,414.016447 925.52,415.68 L942.14,436.62 C943.149236,437.772414 943.984723,439.066071 944.62,440.46 C945.253436,442.444585 945.497906,444.53277 945.34,446.61 C945.26,456.61 945.91,467.34 951.81,475.45 C958.9,485.19 973.35,488.69 984.1,483.26 C981.52,479.35 978.83,474.77 980.1,470.26 C981.57,465.15 987.39,462.79 990.75,458.67 C994.81,453.67 994.91,446.57 993.75,440.26 C992.59,433.95 990.26,427.78 990.21,421.36 C990.13,410.93 995.47,398.81 988.44,391.11 C986.83,389.35 984.69,388.05 983.49,385.99 C982.585732,384.202294 982.1586,382.211309 982.25,380.21 C982.14,368.05 988.59,355.68 984.72,344.15 C983.98229,341.584478 982.426735,339.330151 980.29,337.73 C974.81,334.04 967.21,337.62 960.87,335.73 C957.87,334.86 955.4,332.84 952.47,331.85 C944.57,329.18 937.26,334.54 931.8,339.68 C929.529914,341.663498 927.12039,343.481502 924.59,345.12 C924.98,344.91 915.69,351.53 919.19,351.6 Z" opacity=".1"/>
    <path fill="#B36362" fill-rule="nonzero" d="M920.19,351.6 C929.19,351.79 935.85,362.89 931.86,370.9 C930.11,374.42 926.72,377.52 927.07,381.43 C927.23,383.21 928.18,384.82 928.59,386.56 C930.48,394.56 920.91,402.05 923.1,409.95 C923.847593,412.068434 925.010281,414.016447 926.52,415.68 L943.14,436.62 C944.149236,437.772414 944.984723,439.066071 945.62,440.46 C946.253436,442.444585 946.497906,444.53277 946.34,446.61 C946.26,456.61 946.91,467.34 952.81,475.45 C959.9,485.19 974.35,488.69 985.1,483.26 C982.52,479.35 979.83,474.77 981.1,470.26 C982.57,465.15 988.39,462.79 991.75,458.67 C995.81,453.67 995.91,446.57 994.75,440.26 C993.59,433.95 991.26,427.78 991.21,421.36 C991.13,410.93 996.47,398.81 989.44,391.11 C987.83,389.35 985.69,388.05 984.49,385.99 C983.585732,384.202294 983.1586,382.211309 983.25,380.21 C983.14,368.05 989.59,355.68 985.72,344.15 C984.98229,341.584478 983.426735,339.330151 981.29,337.73 C975.81,334.04 968.21,337.62 961.87,335.73 C958.87,334.86 956.4,332.84 953.47,331.85 C945.57,329.18 938.26,334.54 932.8,339.68 C930.529914,341.663498 928.12039,343.481502 925.59,345.12 C925.98,344.91 916.69,351.53 920.19,351.6 Z"/>
    <path fill="url(#hero-d)" fill-rule="nonzero" d="M618.08,541.95 C615.791641,539.811308 613.803563,537.372464 612.17,534.7 C608.71,529.26 602.92,526.33 598.95,524.87 L598.95,523.1 L599.19,523.1 L599.08,521.46 L599.19,521.46 L598.91,517.12 L597.5,495.44 C597.5,495.44 592.4,480.91 601.4,467.61 C610.4,454.31 601.96,441.55 593.5,436.56 C593.5,436.56 589.5,415.49 592.94,410.5 C588.342507,407.83202 583.602044,405.41839 578.74,403.27 C578.666667,403.01 578.596667,402.743333 578.53,402.47 C578.44,400.47 578.32,398.54 578.21,396.58 C578.325502,395.568018 578.512638,394.565502 578.77,393.58 C578.88,393.17 579,392.75 579.13,392.32 C587.418018,389.106332 592.896019,381.149149 592.94,372.26 C592.941817,369.719824 592.487963,367.19992 591.6,364.82 C592.038633,364.08223 592.37504,363.288309 592.6,362.46 C593.043883,360.066879 592.565116,357.594442 591.26,355.54 C589.02,350.54 583.37,345.97 579.26,344.3 C573.39,341.9 564.55,342.47 558.44,343.2 C555.01,343.61 551.09,344.77 549.85,347.94 C549.521036,349.140901 549.260615,350.359534 549.07,351.59 C547.79,356.43 542.24,358.69 538.81,362.39 C535.81,365.66 534.45,370.08 533.47,374.39 C530.654798,386.740008 529.978327,399.481329 531.47,412.06 C531.82,414.96 532.28,417.84 532.77,420.72 C530.71,423.62 528.85,428.72 529.7,437.72 L522.93,469.88 L520.11,488.73 C519.33642,494.078863 521.234631,499.467091 525.19,503.15 C529.51,507.39 534.75,514.56 537.98,519.21 C536.572038,523.321975 535.875392,527.643887 535.92,531.99 C535.99,533.99 536.1,535.88 536.24,537.7 C536.530128,541.536261 537.254767,545.327193 538.4,549 C539.19,556.74 540.76,566.64 543.82,573 L544.95,606.82 C544.95,606.82 543.26,637.87 539.87,643.97 C536.48,650.07 547.21,701.64 547.21,701.64 L547.21,708.85 L545.4,714.13 L544.95,713.79 C536.48,724.33 544.95,728.21 544.95,728.21 C544.95,728.21 547.25,728.32 550.95,728.46 C550.302706,731.493327 551.786855,734.580852 554.56,735.97 C554.56,735.97 602.56,738.19 611.02,735.97 C619.48,733.75 617.23,725.97 612.71,726.54 C610.422918,726.619962 608.138451,726.319196 605.95,725.65 C608.59,722.56 606.48,718.37 603.12,718.78 C598.6,719.33 588.44,715.31 588.44,715.31 L588.44,715.38 C588.113907,715.257285 587.779792,715.157051 587.44,715.08 C583.665273,714.221613 579.937045,713.170232 576.27,711.93 C574.09,707.26 569.07,694.7 572.67,684.93 C574.3,680.53 574.83,674.67 574.83,668.99 C574.915664,651.86448 577.416979,634.836683 582.26,618.41 L589.03,595.14 C589.03,595.14 598.63,566.86 599.19,559.14 L599.11,547.82 C607.05,552.93 613.35,551.38 617.38,549.01 C618.604245,548.311606 619.414238,547.063346 619.553303,545.660781 C619.692367,544.258215 619.143265,542.875201 618.08,541.95 Z M542.73,483.13 C542.92,482.32 543.08,481.43 543.22,480.5 C544.553333,480.5 545.886667,480.5 547.22,480.5 C548.8716,483.885415 549.563344,487.658876 549.22,491.41 C546.16,490.41 541.58,488.03 542.73,483.13 Z"/>
    <path fill="#DB8B8B" fill-rule="nonzero" d="M548.1,706.26 L545.93,712.78 L552.99,719.84 L576.35,725.27 L593.19,723.64 L592.1,717.64 C591.441216,715.023816 589.376983,712.994309 586.75,712.38 C579.83,710.75 566.63,707.05 563.85,701.89 L548.1,706.26 Z"/>
    <path fill="#000" fill-rule="nonzero" d="M548.1,706.26 L545.93,712.78 L552.99,719.84 L576.35,725.27 L593.19,723.64 L592.1,717.64 C591.441216,715.023816 589.376983,712.994309 586.75,712.38 C579.83,710.75 566.63,707.05 563.85,701.89 L548.1,706.26 Z" opacity=".1"/>
    <path fill="#474463" fill-rule="nonzero" d="M587.76,722.02 L584.5,717.67 L587.76,712.67 C587.76,712.67 597.54,716.62 601.88,716.07 C606.22,715.52 608.4,723.13 600.25,725.31 C592.1,727.49 545.92,725.31 545.92,725.31 C545.92,725.31 537.77,721.51 545.92,711.19 L552.98,716.62 C552.98,716.62 564.98,723.14 570.91,722.05 L587.76,722.02 Z"/>
    <path fill="#DB8B8B" fill-rule="nonzero" d="M602.4,731.25 L585.56,732.88 L562.22,727.41 L555.16,720.41 L555.74,718.68 L556.55,716.26 L557.34,713.89 L573.09,709.54 C573.888388,710.841507 574.980998,711.937543 576.28,712.74 C581.4,716.24 590.59,718.74 595.98,720.03 C596.207248,720.08277 596.43101,720.149565 596.65,720.23 C598.970504,721.008699 600.734459,722.915881 601.33,725.29 L602.4,731.25 Z"/>
    <path fill="#000" fill-rule="nonzero" d="M602.4,731.25 L585.56,732.88 L562.22,727.41 L555.16,720.41 L555.74,718.68 L562.23,723.68 C562.23,723.68 574.23,730.2 580.16,729.11 L597,729.11 L593.74,724.76 L596.67,720.24 C598.990504,721.018699 600.754459,722.925881 601.35,725.3 L602.4,731.25 Z" opacity=".1"/>
    <path fill="#474463" fill-rule="nonzero" d="M596.99,729.62 L593.73,725.27 L596.99,720.27 C596.99,720.27 606.77,724.22 611.11,723.67 C615.45,723.12 617.63,730.73 609.48,732.91 C601.33,735.09 555.15,732.91 555.15,732.91 C555.15,732.91 547,729.11 555.15,718.79 L562.21,724.22 C562.21,724.22 574.21,730.74 580.14,729.65 L596.99,729.62 Z"/>
    <path fill="#DB8B8B" fill-rule="nonzero" d="M583.4,414.53 C583.4,414.53 557.32,417.25 561.13,406.38 C562.191139,403.299837 562.466128,400.003408 561.93,396.79 C561.253375,392.804097 559.676743,389.024967 557.32,385.74 L581.77,389.54 C580.306265,391.989644 579.192151,394.631879 578.46,397.39 C575.55,408.92 583.4,414.53 583.4,414.53 Z"/>
    <path fill="#474463" fill-rule="nonzero" d="M538.86,538.41 C538.86,538.41 539.4,561.77 544.86,573.18 L545.95,606.32 C545.95,606.32 544.32,636.74 541.06,642.72 C537.8,648.7 548.12,699.22 548.12,699.22 L548.12,707.91 C548.12,707.91 565.48,714.41 570.4,706.81 L565.51,642.16 L567.68,552.52 L538.86,538.41 Z"/>
    <path fill="#000" fill-rule="nonzero" d="M538.86,538.41 C538.86,538.41 539.4,561.77 544.86,573.18 L545.95,606.32 C545.95,606.32 544.32,636.74 541.06,642.72 C537.8,648.7 548.12,699.22 548.12,699.22 L548.12,707.91 C548.12,707.91 565.48,714.41 570.4,706.81 L565.51,642.16 L567.68,552.52 L538.86,538.41 Z" opacity=".1"/>
    <path fill="#CBCDDA" fill-rule="nonzero" d="M528,463.41 L524.74,472.1 L522.02,490.57 C521.27638,495.789958 523.097319,501.047967 526.91,504.69 C533.43,511.21 542.12,524.79 542.12,524.79 L552.44,493.79 C552.44,493.79 542.12,492.16 543.75,485.1 C545.38,478.04 544.84,465 544.84,465 L528,463.41 Z"/>
    <path fill="#000" fill-rule="nonzero" d="M528,462.41 L524.74,471.1 L522.02,489.57 C521.27638,494.789958 523.097319,500.047967 526.91,503.69 C533.43,510.21 542.12,523.79 542.12,523.79 L552.44,492.79 C552.44,492.79 542.12,491.16 543.75,484.1 C545.38,477.04 544.84,464 544.84,464 L528,462.41 Z" opacity=".05"/>
    <path fill="#000" fill-rule="nonzero" d="M576.28,712.72 C569.28,723.72 558.47,717.47 556.54,716.23 L557.33,713.86 L573.08,709.51 C573.87999,710.816287 574.976215,711.915938 576.28,712.72 Z" opacity=".1"/>
    <path fill="#474463" fill-rule="nonzero" d="M598.08,559.58 C597.54,567.19 588.3,594.89 588.3,594.89 L581.79,617.69 C577.12018,633.812472 574.710527,650.505041 574.63,667.29 C574.63,672.85 574.12,678.59 572.55,682.9 C568.2,694.9 576.9,711.15 576.9,711.15 C569.29,724.73 556.26,715.5 556.26,715.5 L556.26,706.81 C556.26,706.81 545.94,659.55 548.65,650.31 C551.36,641.07 552.45,616.08 552.45,616.08 L552.45,570.99 C543.746495,562.317428 538.454126,550.80271 537.54,538.55 C537.41,536.77 537.31,534.9 537.24,532.96 C536.8,520.7 545.18,506.33 548.45,501.21 C549.24,499.97 549.73,499.28 549.73,499.28 L597.73,518.28 L597.84,518.28 L597.84,520.14 L597.84,524.25 L598.08,559.58 Z"/>
    <path fill="#000" fill-rule="nonzero" d="M581.78,389.54 C580.316265,391.989644 579.202151,394.631879 578.47,397.39 C573.104911,399.429548 567.143104,399.213148 561.94,396.79 C561.263375,392.804097 559.686743,389.024967 557.33,385.74 L581.78,389.54 Z" opacity=".1"/>
    <circle cx="570.91" cy="376.5" r="21.19" fill="#DB8B8B" fill-rule="nonzero"/>
    <path fill="#000" fill-rule="nonzero" d="M598.08,524.27 L597.85,524.27 C575.07,528.95 546.47,505.21 546.47,505.21 C547.241654,503.931796 547.910429,502.594246 548.47,501.21 C549.26,499.97 549.75,499.28 549.75,499.28 L597.75,518.28 L597.87,520.18 L598.08,524.27 Z" opacity=".1"/>
    <path fill="#CBCDDA" fill-rule="nonzero" d="M592.1,413.98 C592.1,413.98 561.68,395.51 551.9,403.11 L538.32,420.49 C538.32,420.49 529.63,423.21 531.26,440.59 L524.74,472.1 L544.3,476.99 C544.3,476.99 555.71,487.86 546.47,503.61 C546.47,503.61 575.26,527.51 598.08,522.61 L596.4,497.1 C596.4,497.1 591.51,482.98 600.2,469.94 C608.89,456.9 600.74,444.41 592.59,439.52 C592.65,439.52 588.84,418.87 592.1,413.98 Z"/>
    <path fill="#DB8B8B" fill-rule="nonzero" d="M593.73,524.81 C593.73,524.81 605.14,526.98 610.57,535.68 C612.138601,538.29188 614.052544,540.680103 616.26,542.78 C617.263749,543.695488 617.777107,545.030643 617.64524,546.382767 C617.513374,547.734892 616.751719,548.9457 615.59,549.65 C611.28,552.24 604.25,553.84 595.37,546.54 C580.15,534.05 593.73,524.81 593.73,524.81 Z"/>
    <path fill="#000" fill-rule="nonzero" d="M576.89,424.31 C576.89,424.31 566.02,423.22 563.31,451.47 C560.6,479.72 556.25,486.24 556.25,486.24 C556.25,486.24 553.53,500.91 560.05,509.6 C566.57,518.29 579.05,536.76 579.05,536.76 C579.05,536.76 592.63,540.56 595.35,526.98 L578.51,495.47 C578.51,495.47 575.79,484.6 582.31,477 C588.83,469.4 593.73,418.87 576.89,424.31 Z" opacity=".1"/>
    <path fill="#CBCDDA" fill-rule="nonzero" d="M577.98,422.68 C577.98,422.68 567.11,421.59 564.4,449.84 C561.69,478.09 557.34,484.61 557.34,484.61 C557.34,484.61 554.62,499.28 561.14,507.97 C567.66,516.66 580.14,535.13 580.14,535.13 C580.14,535.13 593.72,538.93 596.44,525.35 L579.6,493.84 C579.6,493.84 576.89,482.98 583.4,475.41 C589.91,467.84 594.82,417.24 577.98,422.68 Z"/>
    <path fill="#000" fill-rule="nonzero" d="M586.94 443.05C586.94 443.05 588.03 459.89 583.14 469.13 578.25 478.37 578.25 490.32 583.14 496.84M589.66 422.41C589.66 422.41 585.31 418.06 572.82 417.52 560.33 416.98 554.89 413.17 554.89 413.17" opacity=".1"/>
    <path fill="#000" fill-rule="nonzero" d="M559.4,349.12 C556.1,349.53 552.33,350.66 551.14,353.76 C550.823423,354.93841 550.573031,356.133612 550.39,357.34 C549.16,362.09 543.82,364.34 540.52,367.92 C537.61,371.12 536.33,375.45 535.38,379.68 C532.675305,391.788802 532.029605,404.2667 533.47,416.59 C534.53,425.59 536.7,434.47 537.3,443.52 C537.9,452.57 536.8,462.09 531.85,469.69 C529.72,472.96 526.92,475.83 525.41,479.43 C528.53,481.96 532.82,482.32 536.84,482.43 C541.506667,482.59 546.173333,482.59 550.84,482.43 C553.29,482.35 555.84,482.19 557.97,480.95 C559.533925,479.953258 560.820457,478.577288 561.71,476.95 C564.38,472.41 565.06,466.95 564.94,461.7 C564.82,456.45 563.99,451.21 563.94,445.94 C563.89,443.07 564.11,440.03 565.76,437.68 C566.95,435.98 568.76,434.84 570.31,433.47 C576.13,428.32 578.12,420.05 578.31,412.28 C578.5,404.51 577.22,396.73 577.88,388.99 C578.14,385.99 579.27,382.32 582.25,381.73 C583.205181,381.690973 584.155292,381.570537 585.09,381.37 C587.48,380.45 587.25,377.08 587.93,374.61 C588.7,371.84 591.06,369.7 591.73,366.9 C593.29,360.33 584.93,352.48 579.45,350.19 C573.82,347.84 565.32,348.41 559.4,349.12 Z" opacity=".1"/>
    <path fill="#472727" fill-rule="nonzero" d="M558.9,348.03 C555.6,348.44 551.83,349.57 550.64,352.67 C550.323423,353.84841 550.073031,355.043612 549.89,356.25 C548.66,361 543.32,363.25 540.02,366.83 C537.11,370.03 535.83,374.36 534.88,378.59 C532.175305,390.698802 531.529605,403.1767 532.97,415.5 C534.03,424.5 536.2,433.38 536.8,442.43 C537.4,451.48 536.3,461 531.35,468.6 C529.22,471.87 526.42,474.74 524.91,478.34 C528.03,480.87 532.32,481.23 536.34,481.34 C541.006667,481.5 545.673333,481.5 550.34,481.34 C552.79,481.26 555.34,481.1 557.47,479.86 C559.033925,478.863258 560.320457,477.487288 561.21,475.86 C563.88,471.32 564.56,465.86 564.44,460.61 C564.32,455.36 563.49,450.12 563.44,444.85 C563.39,441.98 563.61,438.94 565.26,436.59 C566.45,434.89 568.26,433.75 569.81,432.38 C575.63,427.23 577.62,418.96 577.81,411.19 C578,403.42 576.72,395.64 577.38,387.9 C577.64,384.9 578.77,381.23 581.75,380.64 C582.705181,380.600973 583.655292,380.480537 584.59,380.28 C586.98,379.36 586.75,375.99 587.43,373.52 C588.2,370.75 590.56,368.61 591.23,365.81 C592.79,359.24 584.43,351.39 578.95,349.1 C573.28,346.75 564.78,347.31 558.9,348.03 Z"/>
  </g>
</svg>
