<?xml version="1.0" encoding="UTF-8" standalone="no"?>
<!DOCTYPE svg PUBLIC "-//W3C//DTD SVG 1.1//EN" "http://www.w3.org/Graphics/SVG/1.1/DTD/svg11.dtd">
<svg version="1.1" xmlns="http://www.w3.org/2000/svg" xmlns:xlink="http://www.w3.org/1999/xlink" preserveAspectRatio="xMidYMid meet" viewBox="0 0 640 640" width="640" height="640"><defs><path d="M488.92 60.12C488.92 60.12 488.92 60.12 488.92 60.12C488.92 369.53 488.92 541.43 488.92 575.81C488.92 575.81 488.92 575.81 488.92 575.81C384.86 575.81 327.05 575.81 315.49 575.81C315.49 575.81 315.49 575.81 315.49 575.81C315.49 266.4 315.49 94.5 315.49 60.12C315.49 60.12 315.49 60.12 315.49 60.12C419.55 60.12 477.36 60.12 488.92 60.12Z" id="e1HfSt8XC"></path><path d="M496.6 606.8L524.35 606.8L524.35 579.05L524.35 60.95L524.35 33.2L496.6 33.2L315.49 33.2L315.49 88.7L468.85 88.7L468.85 551.3L315.49 551.3L315.49 606.8L496.6 606.8Z" id="fXK6iNRn7"></path><path d="M115.65 594.29L115.65 60.95L344.22 0L344.22 640L115.65 594.29Z" id="b2IcoL7gwl"></path><path d="M241.97 353.58L241.97 333.76L300.89 329.6L300.89 357.74L241.97 353.58Z" id="bdCVNjXwl"></path></defs><g><g><g><g><filter id="shadow3549252" x="306.49" y="51.12" width="192.43" height="534.68" filterUnits="userSpaceOnUse" primitiveUnits="userSpaceOnUse"><feFlood></feFlood><feComposite in2="SourceAlpha" operator="in"></feComposite><feGaussianBlur stdDeviation="1"></feGaussianBlur><feOffset dx="1" dy="1" result="afterOffset"></feOffset><feFlood flood-color="#000000" flood-opacity="0.8"></feFlood><feComposite in2="afterOffset" operator="in"></feComposite><feMorphology operator="dilate" radius="1"></feMorphology><feComposite in2="SourceAlpha" operator="out"></feComposite></filter><path d="M488.92 60.12C488.92 60.12 488.92 60.12 488.92 60.12C488.92 369.53 488.92 541.43 488.92 575.81C488.92 575.81 488.92 575.81 488.92 575.81C384.86 575.81 327.05 575.81 315.49 575.81C315.49 575.81 315.49 575.81 315.49 575.81C315.49 266.4 315.49 94.5 315.49 60.12C315.49 60.12 315.49 60.12 315.49 60.12C419.55 60.12 477.36 60.12 488.92 60.12Z" id="a5Isw3Y726" fill="white" fill-opacity="1" filter="url(#shadow3549252)"></path></g><use xlink:href="#e1HfSt8XC" opacity="1" fill="#ced3dc" fill-opacity="1"></use><g><use xlink:href="#e1HfSt8XC" opacity="1" fill-opacity="0" stroke="#000000" stroke-width="1" stroke-opacity="0"></use></g></g><g><g><filter id="shadow2279481" x="305.49" y="23.2" width="229.87" height="593.6" filterUnits="userSpaceOnUse" primitiveUnits="userSpaceOnUse"><feFlood></feFlood><feComposite in2="SourceAlpha" operator="in"></feComposite><feGaussianBlur stdDeviation="1"></feGaussianBlur><feOffset dx="1" dy="0" result="afterOffset"></feOffset><feFlood flood-color="#000000" flood-opacity="0.8"></feFlood><feComposite in2="afterOffset" operator="in"></feComposite><feMorphology operator="dilate" radius="2"></feMorphology><feComposite in2="SourceAlpha" operator="out"></feComposite></filter><path d="M496.6 606.8L524.35 606.8L524.35 579.05L524.35 60.95L524.35 33.2L496.6 33.2L315.49 33.2L315.49 88.7L468.85 88.7L468.85 551.3L315.49 551.3L315.49 606.8L496.6 606.8Z" id="aelxxI1M3" fill="white" fill-opacity="1" filter="url(#shadow2279481)"></path></g><use xlink:href="#fXK6iNRn7" opacity="1" fill="#fcf7f8" fill-opacity="1"></use><g><use xlink:href="#fXK6iNRn7" opacity="1" fill-opacity="0" stroke="#000000" stroke-width="1" stroke-opacity="0"></use></g></g><g><use xlink:href="#b2IcoL7gwl" opacity="1" fill="#fcf7f8" fill-opacity="1"></use><g><use xlink:href="#b2IcoL7gwl" opacity="1" fill-opacity="0" stroke="#000000" stroke-width="1" stroke-opacity="0"></use></g><g><filter id="shadow2845654" x="105.65" y="-10" width="249.57" height="661" filterUnits="userSpaceOnUse" primitiveUnits="userSpaceOnUse"><feFlood></feFlood><feComposite in2="SourceAlpha" operator="out"></feComposite><feGaussianBlur stdDeviation="1"></feGaussianBlur><feOffset dx="1" dy="1" result="afterOffset"></feOffset><feFlood flood-color="#000000" flood-opacity="0.8"></feFlood><feComposite in2="afterOffset" operator="in"></feComposite><feMorphology operator="dilate" radius="2"></feMorphology><feComposite in2="SourceAlpha" operator="in"></feComposite></filter><path d="M115.65 594.29L115.65 60.95L344.22 0L344.22 640L115.65 594.29Z" id="fFpLh56ft" fill="white" fill-opacity="1" filter="url(#shadow2845654)"></path></g></g><g><g><filter id="shadow16167259" x="229.97" y="317.6" width="83.92" height="53.14" filterUnits="userSpaceOnUse" primitiveUnits="userSpaceOnUse"><feFlood></feFlood><feComposite in2="SourceAlpha" operator="in"></feComposite><feGaussianBlur stdDeviation="1.41"></feGaussianBlur><feOffset dx="1" dy="1" result="afterOffset"></feOffset><feFlood flood-color="#000000" flood-opacity="0.5"></feFlood><feComposite in2="afterOffset" operator="in"></feComposite><feMorphology operator="dilate" radius="2"></feMorphology><feComposite in2="SourceAlpha" operator="out"></feComposite></filter><path d="M241.97 353.58L241.97 333.76L300.89 329.6L300.89 357.74L241.97 353.58Z" id="c2PuHNBN73" fill="white" fill-opacity="1" filter="url(#shadow16167259)"></path></g><use xlink:href="#bdCVNjXwl" opacity="1" fill="#ced3dc" fill-opacity="1"></use><g><use xlink:href="#bdCVNjXwl" opacity="1" fill-opacity="0" stroke="#000000" stroke-width="1" stroke-opacity="0"></use></g></g></g></g></svg>